<svg width="163" height="144" viewBox="0 0 163 144" fill="none" xmlns="http://www.w3.org/2000/svg">
<g filter="url(#filter0_d_643_5697)">
<rect x="31.0699" y="25.87" width="104" height="104" rx="52" fill="#081757" shape-rendering="crispEdges"/>
<rect x="31.7199" y="26.52" width="102.7" height="102.7" rx="51.35" stroke="#D9D9D9" stroke-width="1.3" shape-rendering="crispEdges"/>
<path d="M63.8517 104.603L63.8468 104.609L61.9212 106.656L64.5439 106.987C66.7419 107.237 68.9616 107.051 71.1032 106.437C73.275 105.791 75.559 104.537 77.0069 102.205C78.9227 102.631 80.9166 102.854 82.9617 102.854C97.5867 102.854 109.774 91.296 109.774 76.6106C109.774 61.9251 97.5867 50.3668 82.9617 50.3668C68.3367 50.3668 56.1492 61.9251 56.1492 76.6106C56.1492 85.55 60.6975 93.3651 67.5274 98.0752C67.3178 99.3763 66.6085 100.821 65.7651 102.114C65.1913 102.985 64.5615 103.807 63.8809 104.573L63.8517 104.603Z" fill="white"/>
<path d="M83.6946 86.539C83.4512 86.5073 83.3043 86.7999 83.4763 86.975C89.6518 93.2636 93.431 93.1217 99.9259 87.0023C100.11 86.829 99.9598 86.5234 99.7096 86.5589C93.349 87.4606 89.6201 87.312 83.6946 86.539Z" fill="#081757"/>
</g>
<defs>
<filter id="filter0_d_643_5697" x="-5.53131e-05" y="-6.19888e-06" width="166.14" height="166.14" filterUnits="userSpaceOnUse" color-interpolation-filters="sRGB">
<feFlood flood-opacity="0" result="BackgroundImageFix"/>
<feColorMatrix in="SourceAlpha" type="matrix" values="0 0 0 0 0 0 0 0 0 0 0 0 0 0 0 0 0 0 127 0" result="hardAlpha"/>
<feOffset dy="5.2"/>
<feGaussianBlur stdDeviation="15.535"/>
<feComposite in2="hardAlpha" operator="out"/>
<feColorMatrix type="matrix" values="0 0 0 0 0 0 0 0 0 0 0 0 0 0 0 0 0 0 0.05 0"/>
<feBlend mode="normal" in2="BackgroundImageFix" result="effect1_dropShadow_643_5697"/>
<feBlend mode="normal" in="SourceGraphic" in2="effect1_dropShadow_643_5697" result="shape"/>
</filter>
</defs>
</svg>
